<?xml version="1.0" encoding="utf-8"?>
<!-- Generator: Adobe Illustrator 24.0.1, SVG Export Plug-In . SVG Version: 6.00 Build 0)  -->
<svg version="1.1" id="Слой_1" xmlns="http://www.w3.org/2000/svg" xmlns:xlink="http://www.w3.org/1999/xlink" x="0px" y="0px"
	 viewBox="0 0 150 125" style="enable-background:new 0 0 150 125;" xml:space="preserve">
<style type="text/css">
	.st0{fill:url(#SVGID_1_);}
	.st1{fill:url(#SVGID_2_);}
	.st2{fill:none;}
	.st3{fill:url(#SVGID_3_);}
	.st4{fill:url(#SVGID_4_);}
	.st5{fill:url(#SVGID_5_);}
	.st6{fill:url(#SVGID_6_);}
	.st7{fill:url(#SVGID_7_);}
	.st8{fill:url(#SVGID_8_);}
	.st9{fill:url(#SVGID_9_);}
	.st10{fill:url(#SVGID_10_);}
	.st11{fill:url(#SVGID_11_);}
	.st12{fill:url(#SVGID_12_);}
	.st13{fill:url(#SVGID_13_);}
	.st14{fill:url(#SVGID_14_);}
	.st15{fill:url(#SVGID_15_);}
	.st16{fill:url(#SVGID_16_);}
	.st17{fill:url(#SVGID_17_);}
	.st18{fill:url(#SVGID_18_);}
	.st19{fill:url(#SVGID_19_);}
	.st20{fill:url(#SVGID_20_);}
	.st21{fill:url(#SVGID_21_);}
	.st22{fill:url(#SVGID_22_);}
	.st23{fill:url(#SVGID_23_);}
	.st24{fill:url(#SVGID_24_);}
	.st25{fill:url(#SVGID_25_);}
	.st26{fill:url(#SVGID_26_);}
	.st27{fill:url(#SVGID_27_);}
	.st28{fill:url(#SVGID_28_);}
	.st29{fill:url(#SVGID_29_);}
	.st30{fill:url(#SVGID_30_);}
	.st31{fill:url(#SVGID_31_);}
	.st32{fill:url(#SVGID_32_);}
	.st33{fill:url(#SVGID_33_);}
	.st34{fill:url(#SVGID_34_);}
	.st35{fill:url(#SVGID_35_);}
	.st36{fill:url(#SVGID_36_);}
	.st37{fill:url(#SVGID_37_);}
	.st38{fill:url(#SVGID_38_);}
	.st39{fill:url(#SVGID_39_);}
	.st40{fill:url(#SVGID_40_);}
	.st41{fill:url(#SVGID_41_);}
	.st42{fill:url(#SVGID_42_);}
	.st43{fill:url(#SVGID_43_);}
	.st44{fill:url(#SVGID_44_);}
	.st45{fill:url(#SVGID_45_);}
	.st46{fill:url(#SVGID_46_);}
	.st47{fill:url(#SVGID_47_);}
	.st48{fill:url(#SVGID_48_);}
	.st49{fill:url(#SVGID_49_);}
	.st50{fill:url(#SVGID_50_);}
	.st51{fill:url(#SVGID_51_);}
	.st52{fill:url(#SVGID_52_);}
	.st53{fill:url(#SVGID_53_);}
	.st54{fill:url(#SVGID_54_);}
	.st55{fill:url(#SVGID_55_);}
	.st56{fill:url(#SVGID_56_);}
</style>
<g>
	<linearGradient id="SVGID_1_" gradientUnits="userSpaceOnUse" x1="72.1734" y1="113.4337" x2="97.6109" y2="113.4337">
		<stop  offset="0.498" style="stop-color:#3FDCFF"/>
		<stop  offset="1" style="stop-color:#0000FF"/>
	</linearGradient>
	<path class="st0" d="M95.45,109.31l-1.11,1.96l-1.49-0.84c-0.22-0.13-0.48-0.14-0.71-0.08c-0.26,0.28-0.56,0.51-0.92,0.67
		c-1.06,0.92-2.29,1.61-3.63,2c-0.4,0.12-0.68,0.49-0.68,0.91l0.02,1.7l-3.84,0.03l-0.02-1.7c0-0.42-0.29-0.79-0.69-0.9
		c-1.56-0.42-3.01-1.24-4.18-2.37c-0.3-0.29-0.76-0.35-1.13-0.13l-1.47,0.87l-1.25-2.13h-2.18l2.29,3.89
		c0.26,0.45,0.84,0.6,1.28,0.33l1.69-0.99c1.11,0.94,2.4,1.67,3.77,2.14l0.02,1.95c0,0.52,0.43,0.93,0.95,0.93l5.72-0.05
		c0.52,0,0.93-0.43,0.93-0.95l-0.02-1.95c1.37-0.49,2.64-1.24,3.73-2.2l1.7,0.96c0.45,0.26,1.02,0.1,1.28-0.36l2.09-3.7H95.45z"/>
	<linearGradient id="SVGID_2_" gradientUnits="userSpaceOnUse" x1="72.0372" y1="94.1663" x2="97.8183" y2="94.1663">
		<stop  offset="0.498" style="stop-color:#3FDCFF"/>
		<stop  offset="1" style="stop-color:#0000FF"/>
	</linearGradient>
	<path class="st1" d="M74.19,98.44l1.28-2.26l1.49,0.84c0.37,0.21,0.83,0.14,1.12-0.15c1.15-1.15,2.58-1.99,4.14-2.44
		c0.4-0.12,0.68-0.49,0.68-0.91l-0.02-1.7l3.84-0.03l0.02,1.7c0,0.42,0.29,0.79,0.69,0.9c1.56,0.42,3.01,1.24,4.18,2.37
		c0.3,0.29,0.76,0.35,1.13,0.13l1.47-0.87l1.43,2.43h2.18l-2.47-4.19c-0.26-0.45-0.84-0.59-1.28-0.33l-1.69,0.99
		c-1.11-0.94-2.4-1.67-3.77-2.14l-0.02-1.95c0-0.52-0.43-0.93-0.95-0.93l-5.72,0.05c-0.52,0-0.93,0.43-0.93,0.95l0.02,1.95
		c-1.37,0.49-2.64,1.24-3.73,2.2l-1.7-0.96c-0.45-0.26-1.02-0.1-1.28,0.36l-2.26,4H74.19z"/>
</g>
<path class="st2" d="M103.98,107.89c8.4-0.02,16.79-0.05,25.19-0.1"/>
<path class="st2" d="M6.39,107.79c7.92,0.09,15.84,0.13,23.76,0.11"/>
<path class="st2" d="M103.99,107.9c12.96-0.01,25.91-0.05,38.87-0.11"/>
<path class="st2" d="M20.09,107.79c3.24,0.06,6.48,0.1,9.72,0.11"/>
<g>
	<g>
		<linearGradient id="SVGID_3_" gradientUnits="userSpaceOnUse" x1="16.6891" y1="75.8632" x2="130.1573" y2="75.8632">
			<stop  offset="0" style="stop-color:#3FDCFF"/>
			<stop  offset="0.2071" style="stop-color:#2C9BFF"/>
			<stop  offset="0.4092" style="stop-color:#1D64FF"/>
			<stop  offset="0.595" style="stop-color:#1039FF"/>
			<stop  offset="0.7612" style="stop-color:#071AFF"/>
			<stop  offset="0.9018" style="stop-color:#0207FF"/>
			<stop  offset="1" style="stop-color:#0000FF"/>
		</linearGradient>
		<path class="st3" d="M17.48,84.18c1.4,0.86,3.46,1.58,5.62,1.58c3.2,0,5.08-1.69,5.08-4.14c0-2.27-1.3-3.56-4.57-4.82
			c-3.96-1.4-6.41-3.46-6.41-6.88c0-3.78,3.13-6.59,7.85-6.59c2.48,0,4.28,0.58,5.36,1.19l-0.86,2.56
			c-0.79-0.43-2.41-1.15-4.61-1.15c-3.31,0-4.57,1.98-4.57,3.64c0,2.27,1.48,3.38,4.82,4.68c4.1,1.58,6.19,3.56,6.19,7.13
			c0,3.74-2.77,6.98-8.49,6.98c-2.34,0-4.9-0.68-6.19-1.55L17.48,84.18z"/>
		<linearGradient id="SVGID_4_" gradientUnits="userSpaceOnUse" x1="16.6891" y1="75.8632" x2="130.1573" y2="75.8632">
			<stop  offset="0" style="stop-color:#3FDCFF"/>
			<stop  offset="0.2071" style="stop-color:#2C9BFF"/>
			<stop  offset="0.4092" style="stop-color:#1D64FF"/>
			<stop  offset="0.595" style="stop-color:#1039FF"/>
			<stop  offset="0.7612" style="stop-color:#071AFF"/>
			<stop  offset="0.9018" style="stop-color:#0207FF"/>
			<stop  offset="1" style="stop-color:#0000FF"/>
		</linearGradient>
		<path class="st4" d="M40.27,66.4h-7.38v-2.66h17.96v2.66h-7.42v21.6h-3.17V66.4z"/>
		<linearGradient id="SVGID_5_" gradientUnits="userSpaceOnUse" x1="16.6891" y1="75.8632" x2="130.1573" y2="75.8632">
			<stop  offset="0" style="stop-color:#3FDCFF"/>
			<stop  offset="0.2071" style="stop-color:#2C9BFF"/>
			<stop  offset="0.4092" style="stop-color:#1D64FF"/>
			<stop  offset="0.595" style="stop-color:#1039FF"/>
			<stop  offset="0.7612" style="stop-color:#071AFF"/>
			<stop  offset="0.9018" style="stop-color:#0207FF"/>
			<stop  offset="1" style="stop-color:#0000FF"/>
		</linearGradient>
		<path class="st5" d="M56.68,63.73V78.1c0,5.43,2.41,7.74,5.65,7.74c3.6,0,5.9-2.38,5.9-7.74V63.73h3.17v14.15
			c0,7.45-3.92,10.51-9.18,10.51c-4.97,0-8.71-2.84-8.71-10.37V63.73H56.68z"/>
		<linearGradient id="SVGID_6_" gradientUnits="userSpaceOnUse" x1="16.6891" y1="75.8632" x2="130.1573" y2="75.8632">
			<stop  offset="0" style="stop-color:#3FDCFF"/>
			<stop  offset="0.2071" style="stop-color:#2C9BFF"/>
			<stop  offset="0.4092" style="stop-color:#1D64FF"/>
			<stop  offset="0.595" style="stop-color:#1039FF"/>
			<stop  offset="0.7612" style="stop-color:#071AFF"/>
			<stop  offset="0.9018" style="stop-color:#0207FF"/>
			<stop  offset="1" style="stop-color:#0000FF"/>
		</linearGradient>
		<path class="st6" d="M76.84,64.06c1.91-0.29,4.18-0.5,6.66-0.5c4.5,0,7.7,1.04,9.83,3.02c2.16,1.98,3.42,4.79,3.42,8.71
			c0,3.96-1.22,7.2-3.49,9.43c-2.27,2.27-6.01,3.49-10.73,3.49c-2.23,0-4.1-0.11-5.69-0.29V64.06z M79.98,85.51
			c0.79,0.14,1.94,0.18,3.17,0.18c6.7,0,10.33-3.74,10.33-10.29c0.04-5.72-3.2-9.36-9.83-9.36c-1.62,0-2.84,0.14-3.67,0.32V85.51z"
			/>
		<linearGradient id="SVGID_7_" gradientUnits="userSpaceOnUse" x1="16.6891" y1="75.8632" x2="130.1573" y2="75.8632">
			<stop  offset="0" style="stop-color:#3FDCFF"/>
			<stop  offset="0.2071" style="stop-color:#2C9BFF"/>
			<stop  offset="0.4092" style="stop-color:#1D64FF"/>
			<stop  offset="0.595" style="stop-color:#1039FF"/>
			<stop  offset="0.7612" style="stop-color:#071AFF"/>
			<stop  offset="0.9018" style="stop-color:#0207FF"/>
			<stop  offset="1" style="stop-color:#0000FF"/>
		</linearGradient>
		<path class="st7" d="M103.95,63.73v24.26h-3.13V63.73H103.95z"/>
		<linearGradient id="SVGID_8_" gradientUnits="userSpaceOnUse" x1="16.6891" y1="75.8632" x2="130.1573" y2="75.8632">
			<stop  offset="0" style="stop-color:#3FDCFF"/>
			<stop  offset="0.2071" style="stop-color:#2C9BFF"/>
			<stop  offset="0.4092" style="stop-color:#1D64FF"/>
			<stop  offset="0.595" style="stop-color:#1039FF"/>
			<stop  offset="0.7612" style="stop-color:#071AFF"/>
			<stop  offset="0.9018" style="stop-color:#0207FF"/>
			<stop  offset="1" style="stop-color:#0000FF"/>
		</linearGradient>
		<path class="st8" d="M130.16,75.61c0,8.35-5.08,12.78-11.27,12.78c-6.41,0-10.91-4.97-10.91-12.31c0-7.7,4.79-12.74,11.27-12.74
			C125.87,63.34,130.16,68.41,130.16,75.61z M111.33,76.01c0,5.18,2.81,9.83,7.74,9.83c4.97,0,7.78-4.57,7.78-10.08
			c0-4.82-2.52-9.86-7.74-9.86C113.92,65.89,111.33,70.68,111.33,76.01z"/>
	</g>
	<g>
		<path d="M17.48,84.18c1.4,0.86,3.46,1.58,5.62,1.58c3.2,0,5.08-1.69,5.08-4.14c0-2.27-1.3-3.56-4.57-4.82
			c-3.96-1.4-6.41-3.46-6.41-6.88c0-3.78,3.13-6.59,7.85-6.59c2.48,0,4.28,0.58,5.36,1.19l-0.86,2.56
			c-0.79-0.43-2.41-1.15-4.61-1.15c-3.31,0-4.57,1.98-4.57,3.64c0,2.27,1.48,3.38,4.82,4.68c4.1,1.58,6.19,3.56,6.19,7.13
			c0,3.74-2.77,6.98-8.49,6.98c-2.34,0-4.9-0.68-6.19-1.55L17.48,84.18z"/>
		<path d="M40.27,66.4h-7.38v-2.66h17.96v2.66h-7.42v21.6h-3.17V66.4z"/>
		<path d="M56.68,63.73V78.1c0,5.43,2.41,7.74,5.65,7.74c3.6,0,5.9-2.38,5.9-7.74V63.73h3.17v14.15c0,7.45-3.92,10.51-9.18,10.51
			c-4.97,0-8.71-2.84-8.71-10.37V63.73H56.68z"/>
		<path d="M76.84,64.06c1.91-0.29,4.18-0.5,6.66-0.5c4.5,0,7.7,1.04,9.83,3.02c2.16,1.98,3.42,4.79,3.42,8.71
			c0,3.96-1.22,7.2-3.49,9.43c-2.27,2.27-6.01,3.49-10.73,3.49c-2.23,0-4.1-0.11-5.69-0.29V64.06z M79.98,85.51
			c0.79,0.14,1.94,0.18,3.17,0.18c6.7,0,10.33-3.74,10.33-10.29c0.04-5.72-3.2-9.36-9.83-9.36c-1.62,0-2.84,0.14-3.67,0.32V85.51z"
			/>
		<path d="M103.95,63.73v24.26h-3.13V63.73H103.95z"/>
		<path d="M130.16,75.61c0,8.35-5.08,12.78-11.27,12.78c-6.41,0-10.91-4.97-10.91-12.31c0-7.7,4.79-12.74,11.27-12.74
			C125.87,63.34,130.16,68.41,130.16,75.61z M111.33,76.01c0,5.18,2.81,9.83,7.74,9.83c4.97,0,7.78-4.57,7.78-10.08
			c0-4.82-2.52-9.86-7.74-9.86C113.92,65.89,111.33,70.68,111.33,76.01z"/>
	</g>
	<g>
		<linearGradient id="SVGID_9_" gradientUnits="userSpaceOnUse" x1="16.6891" y1="75.8632" x2="130.1573" y2="75.8632">
			<stop  offset="0" style="stop-color:#3FDCFF"/>
			<stop  offset="0.2071" style="stop-color:#2C9BFF"/>
			<stop  offset="0.4092" style="stop-color:#1D64FF"/>
			<stop  offset="0.595" style="stop-color:#1039FF"/>
			<stop  offset="0.7612" style="stop-color:#071AFF"/>
			<stop  offset="0.9018" style="stop-color:#0207FF"/>
			<stop  offset="1" style="stop-color:#0000FF"/>
		</linearGradient>
		<path class="st9" d="M17.48,84.18c1.4,0.86,3.46,1.58,5.62,1.58c3.2,0,5.08-1.69,5.08-4.14c0-2.27-1.3-3.56-4.57-4.82
			c-3.96-1.4-6.41-3.46-6.41-6.88c0-3.78,3.13-6.59,7.85-6.59c2.48,0,4.28,0.58,5.36,1.19l-0.86,2.56
			c-0.79-0.43-2.41-1.15-4.61-1.15c-3.31,0-4.57,1.98-4.57,3.64c0,2.27,1.48,3.38,4.82,4.68c4.1,1.58,6.19,3.56,6.19,7.13
			c0,3.74-2.77,6.98-8.49,6.98c-2.34,0-4.9-0.68-6.19-1.55L17.48,84.18z"/>
		<linearGradient id="SVGID_10_" gradientUnits="userSpaceOnUse" x1="16.6891" y1="75.8632" x2="130.1573" y2="75.8632">
			<stop  offset="0" style="stop-color:#3FDCFF"/>
			<stop  offset="0.2071" style="stop-color:#2C9BFF"/>
			<stop  offset="0.4092" style="stop-color:#1D64FF"/>
			<stop  offset="0.595" style="stop-color:#1039FF"/>
			<stop  offset="0.7612" style="stop-color:#071AFF"/>
			<stop  offset="0.9018" style="stop-color:#0207FF"/>
			<stop  offset="1" style="stop-color:#0000FF"/>
		</linearGradient>
		<path class="st10" d="M40.27,66.4h-7.38v-2.66h17.96v2.66h-7.42v21.6h-3.17V66.4z"/>
		<linearGradient id="SVGID_11_" gradientUnits="userSpaceOnUse" x1="16.6891" y1="75.8632" x2="130.1573" y2="75.8632">
			<stop  offset="0" style="stop-color:#3FDCFF"/>
			<stop  offset="0.2071" style="stop-color:#2C9BFF"/>
			<stop  offset="0.4092" style="stop-color:#1D64FF"/>
			<stop  offset="0.595" style="stop-color:#1039FF"/>
			<stop  offset="0.7612" style="stop-color:#071AFF"/>
			<stop  offset="0.9018" style="stop-color:#0207FF"/>
			<stop  offset="1" style="stop-color:#0000FF"/>
		</linearGradient>
		<path class="st11" d="M56.68,63.73V78.1c0,5.43,2.41,7.74,5.65,7.74c3.6,0,5.9-2.38,5.9-7.74V63.73h3.17v14.15
			c0,7.45-3.92,10.51-9.18,10.51c-4.97,0-8.71-2.84-8.71-10.37V63.73H56.68z"/>
		<linearGradient id="SVGID_12_" gradientUnits="userSpaceOnUse" x1="16.6891" y1="75.8632" x2="130.1573" y2="75.8632">
			<stop  offset="0" style="stop-color:#3FDCFF"/>
			<stop  offset="0.2071" style="stop-color:#2C9BFF"/>
			<stop  offset="0.4092" style="stop-color:#1D64FF"/>
			<stop  offset="0.595" style="stop-color:#1039FF"/>
			<stop  offset="0.7612" style="stop-color:#071AFF"/>
			<stop  offset="0.9018" style="stop-color:#0207FF"/>
			<stop  offset="1" style="stop-color:#0000FF"/>
		</linearGradient>
		<path class="st12" d="M76.84,64.06c1.91-0.29,4.18-0.5,6.66-0.5c4.5,0,7.7,1.04,9.83,3.02c2.16,1.98,3.42,4.79,3.42,8.71
			c0,3.96-1.22,7.2-3.49,9.43c-2.27,2.27-6.01,3.49-10.73,3.49c-2.23,0-4.1-0.11-5.69-0.29V64.06z M79.98,85.51
			c0.79,0.14,1.94,0.18,3.17,0.18c6.7,0,10.33-3.74,10.33-10.29c0.04-5.72-3.2-9.36-9.83-9.36c-1.62,0-2.84,0.14-3.67,0.32V85.51z"
			/>
		<linearGradient id="SVGID_13_" gradientUnits="userSpaceOnUse" x1="16.6891" y1="75.8632" x2="130.1573" y2="75.8632">
			<stop  offset="0" style="stop-color:#3FDCFF"/>
			<stop  offset="0.2071" style="stop-color:#2C9BFF"/>
			<stop  offset="0.4092" style="stop-color:#1D64FF"/>
			<stop  offset="0.595" style="stop-color:#1039FF"/>
			<stop  offset="0.7612" style="stop-color:#071AFF"/>
			<stop  offset="0.9018" style="stop-color:#0207FF"/>
			<stop  offset="1" style="stop-color:#0000FF"/>
		</linearGradient>
		<path class="st13" d="M103.95,63.73v24.26h-3.13V63.73H103.95z"/>
		<linearGradient id="SVGID_14_" gradientUnits="userSpaceOnUse" x1="16.6891" y1="75.8632" x2="130.1573" y2="75.8632">
			<stop  offset="0" style="stop-color:#3FDCFF"/>
			<stop  offset="0.2071" style="stop-color:#2C9BFF"/>
			<stop  offset="0.4092" style="stop-color:#1D64FF"/>
			<stop  offset="0.595" style="stop-color:#1039FF"/>
			<stop  offset="0.7612" style="stop-color:#071AFF"/>
			<stop  offset="0.9018" style="stop-color:#0207FF"/>
			<stop  offset="1" style="stop-color:#0000FF"/>
		</linearGradient>
		<path class="st14" d="M130.16,75.61c0,8.35-5.08,12.78-11.27,12.78c-6.41,0-10.91-4.97-10.91-12.31c0-7.7,4.79-12.74,11.27-12.74
			C125.87,63.34,130.16,68.41,130.16,75.61z M111.33,76.01c0,5.18,2.81,9.83,7.74,9.83c4.97,0,7.78-4.57,7.78-10.08
			c0-4.82-2.52-9.86-7.74-9.86C113.92,65.89,111.33,70.68,111.33,76.01z"/>
	</g>
</g>
<g>
	<g>
		<linearGradient id="SVGID_15_" gradientUnits="userSpaceOnUse" x1="12.9567" y1="104.1557" x2="132.1505" y2="104.1557">
			<stop  offset="0.498" style="stop-color:#3FDCFF"/>
			<stop  offset="1" style="stop-color:#0000FF"/>
		</linearGradient>
		<path class="st15" d="M12.96,99.54h4.97v1h-3.78v3.07h3.49v0.99h-3.49v4.17h-1.19V99.54z"/>
		<linearGradient id="SVGID_16_" gradientUnits="userSpaceOnUse" x1="12.9567" y1="104.1557" x2="132.1505" y2="104.1557">
			<stop  offset="0.498" style="stop-color:#3FDCFF"/>
			<stop  offset="1" style="stop-color:#0000FF"/>
		</linearGradient>
		<path class="st16" d="M19.62,99.67c0.6-0.12,1.46-0.19,2.29-0.19c1.27,0,2.09,0.23,2.67,0.75c0.47,0.41,0.73,1.04,0.73,1.75
			c0,1.22-0.77,2.03-1.74,2.35v0.04c0.71,0.25,1.14,0.9,1.35,1.86c0.3,1.29,0.52,2.18,0.71,2.53H24.4c-0.15-0.26-0.36-1.05-0.62-2.2
			c-0.27-1.27-0.77-1.75-1.85-1.79h-1.12v4h-1.19V99.67z M20.81,103.87h1.22c1.27,0,2.08-0.7,2.08-1.75c0-1.19-0.86-1.71-2.12-1.72
			c-0.58,0-0.99,0.05-1.18,0.11V103.87z"/>
		<linearGradient id="SVGID_17_" gradientUnits="userSpaceOnUse" x1="12.9567" y1="104.1557" x2="132.1505" y2="104.1557">
			<stop  offset="0.498" style="stop-color:#3FDCFF"/>
			<stop  offset="1" style="stop-color:#0000FF"/>
		</linearGradient>
		<path class="st17" d="M28.54,105.87l-0.96,2.9h-1.23l3.13-9.23h1.44l3.15,9.23H32.8l-0.99-2.9H28.54z M31.56,104.94l-0.9-2.66
			c-0.21-0.6-0.34-1.15-0.48-1.68h-0.03c-0.14,0.55-0.29,1.11-0.47,1.67l-0.9,2.67H31.56z"/>
		<linearGradient id="SVGID_18_" gradientUnits="userSpaceOnUse" x1="12.9567" y1="104.1557" x2="132.1505" y2="104.1557">
			<stop  offset="0.498" style="stop-color:#3FDCFF"/>
			<stop  offset="1" style="stop-color:#0000FF"/>
		</linearGradient>
		<path class="st18" d="M35.42,108.77v-9.23h1.3l2.96,4.67c0.68,1.08,1.22,2.05,1.66,3l0.03-0.01c-0.11-1.23-0.14-2.35-0.14-3.79
			v-3.86h1.12v9.23h-1.2l-2.93-4.68c-0.64-1.03-1.26-2.08-1.72-3.08l-0.04,0.01c0.07,1.16,0.1,2.27,0.1,3.81v3.94H35.42z"/>
		<linearGradient id="SVGID_19_" gradientUnits="userSpaceOnUse" x1="12.9567" y1="104.1557" x2="132.1505" y2="104.1557">
			<stop  offset="0.498" style="stop-color:#3FDCFF"/>
			<stop  offset="1" style="stop-color:#0000FF"/>
		</linearGradient>
		<path class="st19" d="M50.87,108.47c-0.44,0.22-1.31,0.44-2.44,0.44c-2.6,0-4.56-1.64-4.56-4.67c0-2.89,1.96-4.85,4.82-4.85
			c1.15,0,1.88,0.25,2.19,0.41l-0.29,0.97c-0.45-0.22-1.09-0.38-1.86-0.38c-2.16,0-3.6,1.38-3.6,3.81c0,2.26,1.3,3.71,3.54,3.71
			c0.73,0,1.46-0.15,1.94-0.38L50.87,108.47z"/>
		<linearGradient id="SVGID_20_" gradientUnits="userSpaceOnUse" x1="12.9567" y1="104.1557" x2="132.1505" y2="104.1557">
			<stop  offset="0.498" style="stop-color:#3FDCFF"/>
			<stop  offset="1" style="stop-color:#0000FF"/>
		</linearGradient>
		<path class="st20" d="M57.13,104.44h-3.59v3.33h4v1h-5.19v-9.23h4.98v1h-3.79v2.92h3.59V104.44z"/>
		<linearGradient id="SVGID_21_" gradientUnits="userSpaceOnUse" x1="12.9567" y1="104.1557" x2="132.1505" y2="104.1557">
			<stop  offset="0.498" style="stop-color:#3FDCFF"/>
			<stop  offset="1" style="stop-color:#0000FF"/>
		</linearGradient>
		<path class="st21" d="M58.92,107.32c0.53,0.33,1.31,0.6,2.14,0.6c1.22,0,1.93-0.64,1.93-1.57c0-0.86-0.49-1.35-1.74-1.83
			c-1.51-0.53-2.44-1.31-2.44-2.61c0-1.44,1.19-2.5,2.98-2.5c0.94,0,1.63,0.22,2.04,0.45l-0.33,0.97c-0.3-0.16-0.92-0.44-1.75-0.44
			c-1.26,0-1.74,0.75-1.74,1.38c0,0.86,0.56,1.29,1.83,1.78c1.56,0.6,2.35,1.36,2.35,2.71c0,1.42-1.05,2.66-3.23,2.66
			c-0.89,0-1.86-0.26-2.35-0.59L58.92,107.32z"/>
		<linearGradient id="SVGID_22_" gradientUnits="userSpaceOnUse" x1="12.9567" y1="104.1557" x2="132.1505" y2="104.1557">
			<stop  offset="0.498" style="stop-color:#3FDCFF"/>
			<stop  offset="1" style="stop-color:#0000FF"/>
		</linearGradient>
		<path class="st22" d="M72.28,108.47c-0.44,0.22-1.31,0.44-2.44,0.44c-2.6,0-4.56-1.64-4.56-4.67c0-2.89,1.96-4.85,4.82-4.85
			c1.15,0,1.88,0.25,2.19,0.41L72,100.78c-0.45-0.22-1.09-0.38-1.86-0.38c-2.16,0-3.6,1.38-3.6,3.81c0,2.26,1.3,3.71,3.54,3.71
			c0.73,0,1.46-0.15,1.94-0.38L72.28,108.47z"/>
		<linearGradient id="SVGID_23_" gradientUnits="userSpaceOnUse" x1="12.9567" y1="104.1557" x2="132.1505" y2="104.1557">
			<stop  offset="0.498" style="stop-color:#3FDCFF"/>
			<stop  offset="1" style="stop-color:#0000FF"/>
		</linearGradient>
		<path class="st23" d="M81.36,104.06c0,3.17-1.93,4.86-4.28,4.86c-2.44,0-4.15-1.89-4.15-4.68c0-2.93,1.82-4.85,4.28-4.85
			C79.73,99.39,81.36,101.32,81.36,104.06z M74.2,104.21c0,1.97,1.07,3.74,2.94,3.74c1.89,0,2.96-1.74,2.96-3.83
			c0-1.83-0.96-3.75-2.94-3.75C75.19,100.36,74.2,102.18,74.2,104.21z"/>
		<linearGradient id="SVGID_24_" gradientUnits="userSpaceOnUse" x1="12.9567" y1="104.1557" x2="132.1505" y2="104.1557">
			<stop  offset="0.498" style="stop-color:#3FDCFF"/>
			<stop  offset="1" style="stop-color:#0000FF"/>
		</linearGradient>
		<path class="st24" d="M85.8,99.67c0.52-0.11,1.34-0.19,2.18-0.19c1.19,0,1.96,0.21,2.53,0.67c0.48,0.36,0.77,0.9,0.77,1.63
			c0,0.89-0.59,1.67-1.56,2.03v0.03c0.88,0.22,1.9,0.94,1.9,2.31c0,0.79-0.31,1.4-0.78,1.85c-0.64,0.59-1.68,0.86-3.19,0.86
			c-0.82,0-1.45-0.05-1.85-0.11V99.67z M86.99,103.44h1.08c1.26,0,2-0.66,2-1.55c0-1.08-0.82-1.51-2.03-1.51
			c-0.55,0-0.86,0.04-1.05,0.08V103.44z M86.99,107.87c0.23,0.04,0.57,0.05,1,0.05c1.23,0,2.37-0.45,2.37-1.79
			c0-1.26-1.08-1.78-2.38-1.78h-0.99V107.87z"/>
		<linearGradient id="SVGID_25_" gradientUnits="userSpaceOnUse" x1="12.9567" y1="104.1557" x2="132.1505" y2="104.1557">
			<stop  offset="0.498" style="stop-color:#3FDCFF"/>
			<stop  offset="1" style="stop-color:#0000FF"/>
		</linearGradient>
		<path class="st25" d="M97.99,104.44h-3.59v3.33h4v1h-5.19v-9.23h4.98v1h-3.79v2.92h3.59V104.44z"/>
		<linearGradient id="SVGID_26_" gradientUnits="userSpaceOnUse" x1="12.9567" y1="104.1557" x2="132.1505" y2="104.1557">
			<stop  offset="0.498" style="stop-color:#3FDCFF"/>
			<stop  offset="1" style="stop-color:#0000FF"/>
		</linearGradient>
		<path class="st26" d="M99.94,99.54h1.19v8.23h3.94v1h-5.13V99.54z"/>
		<linearGradient id="SVGID_27_" gradientUnits="userSpaceOnUse" x1="12.9567" y1="104.1557" x2="132.1505" y2="104.1557">
			<stop  offset="0.498" style="stop-color:#3FDCFF"/>
			<stop  offset="1" style="stop-color:#0000FF"/>
		</linearGradient>
		<path class="st27" d="M106.4,99.54h1.19v8.23h3.94v1h-5.13V99.54z"/>
		<linearGradient id="SVGID_28_" gradientUnits="userSpaceOnUse" x1="12.9567" y1="104.1557" x2="132.1505" y2="104.1557">
			<stop  offset="0.498" style="stop-color:#3FDCFF"/>
			<stop  offset="1" style="stop-color:#0000FF"/>
		</linearGradient>
		<path class="st28" d="M114.05,99.54v9.23h-1.19v-9.23H114.05z"/>
		<linearGradient id="SVGID_29_" gradientUnits="userSpaceOnUse" x1="12.9567" y1="104.1557" x2="132.1505" y2="104.1557">
			<stop  offset="0.498" style="stop-color:#3FDCFF"/>
			<stop  offset="1" style="stop-color:#0000FF"/>
		</linearGradient>
		<path class="st29" d="M116.13,108.77v-9.23h1.3l2.96,4.67c0.68,1.08,1.22,2.05,1.66,3l0.03-0.01c-0.11-1.23-0.14-2.35-0.14-3.79
			v-3.86h1.12v9.23h-1.21l-2.93-4.68c-0.64-1.03-1.26-2.08-1.72-3.08l-0.04,0.01c0.07,1.16,0.1,2.27,0.1,3.81v3.94H116.13z"/>
		<linearGradient id="SVGID_30_" gradientUnits="userSpaceOnUse" x1="12.9567" y1="104.1557" x2="132.1505" y2="104.1557">
			<stop  offset="0.498" style="stop-color:#3FDCFF"/>
			<stop  offset="1" style="stop-color:#0000FF"/>
		</linearGradient>
		<path class="st30" d="M126.62,105.87l-0.96,2.9h-1.23l3.13-9.23H129l3.15,9.23h-1.27l-0.99-2.9H126.62z M129.65,104.94l-0.9-2.66
			c-0.21-0.6-0.34-1.15-0.48-1.68h-0.03c-0.14,0.55-0.29,1.11-0.46,1.67l-0.9,2.67H129.65z"/>
	</g>
	<g>
		<path d="M12.96,99.54h4.97v1h-3.78v3.07h3.49v0.99h-3.49v4.17h-1.19V99.54z"/>
		<path d="M19.62,99.67c0.6-0.12,1.46-0.19,2.29-0.19c1.27,0,2.09,0.23,2.67,0.75c0.47,0.41,0.73,1.04,0.73,1.75
			c0,1.22-0.77,2.03-1.74,2.35v0.04c0.71,0.25,1.14,0.9,1.35,1.86c0.3,1.29,0.52,2.18,0.71,2.53H24.4c-0.15-0.26-0.36-1.05-0.62-2.2
			c-0.27-1.27-0.77-1.75-1.85-1.79h-1.12v4h-1.19V99.67z M20.81,103.87h1.22c1.27,0,2.08-0.7,2.08-1.75c0-1.19-0.86-1.71-2.12-1.72
			c-0.58,0-0.99,0.05-1.18,0.11V103.87z"/>
		<path d="M28.54,105.87l-0.96,2.9h-1.23l3.13-9.23h1.44l3.15,9.23H32.8l-0.99-2.9H28.54z M31.56,104.94l-0.9-2.66
			c-0.21-0.6-0.34-1.15-0.48-1.68h-0.03c-0.14,0.55-0.29,1.11-0.47,1.67l-0.9,2.67H31.56z"/>
		<path d="M35.42,108.77v-9.23h1.3l2.96,4.67c0.68,1.08,1.22,2.05,1.66,3l0.03-0.01c-0.11-1.23-0.14-2.35-0.14-3.79v-3.86h1.12v9.23
			h-1.2l-2.93-4.68c-0.64-1.03-1.26-2.08-1.72-3.08l-0.04,0.01c0.07,1.16,0.1,2.27,0.1,3.81v3.94H35.42z"/>
		<path d="M50.87,108.47c-0.44,0.22-1.31,0.44-2.44,0.44c-2.6,0-4.56-1.64-4.56-4.67c0-2.89,1.96-4.85,4.82-4.85
			c1.15,0,1.88,0.25,2.19,0.41l-0.29,0.97c-0.45-0.22-1.09-0.38-1.86-0.38c-2.16,0-3.6,1.38-3.6,3.81c0,2.26,1.3,3.71,3.54,3.71
			c0.73,0,1.46-0.15,1.94-0.38L50.87,108.47z"/>
		<path d="M57.13,104.44h-3.59v3.33h4v1h-5.19v-9.23h4.98v1h-3.79v2.92h3.59V104.44z"/>
		<path d="M58.92,107.32c0.53,0.33,1.31,0.6,2.14,0.6c1.22,0,1.93-0.64,1.93-1.57c0-0.86-0.49-1.35-1.74-1.83
			c-1.51-0.53-2.44-1.31-2.44-2.61c0-1.44,1.19-2.5,2.98-2.5c0.94,0,1.63,0.22,2.04,0.45l-0.33,0.97c-0.3-0.16-0.92-0.44-1.75-0.44
			c-1.26,0-1.74,0.75-1.74,1.38c0,0.86,0.56,1.29,1.83,1.78c1.56,0.6,2.35,1.36,2.35,2.71c0,1.42-1.05,2.66-3.23,2.66
			c-0.89,0-1.86-0.26-2.35-0.59L58.92,107.32z"/>
		<path d="M72.28,108.47c-0.44,0.22-1.31,0.44-2.44,0.44c-2.6,0-4.56-1.64-4.56-4.67c0-2.89,1.96-4.85,4.82-4.85
			c1.15,0,1.88,0.25,2.19,0.41L72,100.78c-0.45-0.22-1.09-0.38-1.86-0.38c-2.16,0-3.6,1.38-3.6,3.81c0,2.26,1.3,3.71,3.54,3.71
			c0.73,0,1.46-0.15,1.94-0.38L72.28,108.47z"/>
		<path d="M81.36,104.06c0,3.17-1.93,4.86-4.28,4.86c-2.44,0-4.15-1.89-4.15-4.68c0-2.93,1.82-4.85,4.28-4.85
			C79.73,99.39,81.36,101.32,81.36,104.06z M74.2,104.21c0,1.97,1.07,3.74,2.94,3.74c1.89,0,2.96-1.74,2.96-3.83
			c0-1.83-0.96-3.75-2.94-3.75C75.19,100.36,74.2,102.18,74.2,104.21z"/>
		<path d="M85.8,99.67c0.52-0.11,1.34-0.19,2.18-0.19c1.19,0,1.96,0.21,2.53,0.67c0.48,0.36,0.77,0.9,0.77,1.63
			c0,0.89-0.59,1.67-1.56,2.03v0.03c0.88,0.22,1.9,0.94,1.9,2.31c0,0.79-0.31,1.4-0.78,1.85c-0.64,0.59-1.68,0.86-3.19,0.86
			c-0.82,0-1.45-0.05-1.85-0.11V99.67z M86.99,103.44h1.08c1.26,0,2-0.66,2-1.55c0-1.08-0.82-1.51-2.03-1.51
			c-0.55,0-0.86,0.04-1.05,0.08V103.44z M86.99,107.87c0.23,0.04,0.57,0.05,1,0.05c1.23,0,2.37-0.45,2.37-1.79
			c0-1.26-1.08-1.78-2.38-1.78h-0.99V107.87z"/>
		<path d="M97.99,104.44h-3.59v3.33h4v1h-5.19v-9.23h4.98v1h-3.79v2.92h3.59V104.44z"/>
		<path d="M99.94,99.54h1.19v8.23h3.94v1h-5.13V99.54z"/>
		<path d="M106.4,99.54h1.19v8.23h3.94v1h-5.13V99.54z"/>
		<path d="M114.05,99.54v9.23h-1.19v-9.23H114.05z"/>
		<path d="M116.13,108.77v-9.23h1.3l2.96,4.67c0.68,1.08,1.22,2.05,1.66,3l0.03-0.01c-0.11-1.23-0.14-2.35-0.14-3.79v-3.86h1.12
			v9.23h-1.21l-2.93-4.68c-0.64-1.03-1.26-2.08-1.72-3.08l-0.04,0.01c0.07,1.16,0.1,2.27,0.1,3.81v3.94H116.13z"/>
		<path d="M126.62,105.87l-0.96,2.9h-1.23l3.13-9.23H129l3.15,9.23h-1.27l-0.99-2.9H126.62z M129.65,104.94l-0.9-2.66
			c-0.21-0.6-0.34-1.15-0.48-1.68h-0.03c-0.14,0.55-0.29,1.11-0.46,1.67l-0.9,2.67H129.65z"/>
	</g>
	<g>
		<linearGradient id="SVGID_31_" gradientUnits="userSpaceOnUse" x1="12.9567" y1="104.1557" x2="132.1505" y2="104.1557">
			<stop  offset="0.498" style="stop-color:#3FDCFF"/>
			<stop  offset="1" style="stop-color:#0000FF"/>
		</linearGradient>
		<path class="st31" d="M12.96,99.54h4.97v1h-3.78v3.07h3.49v0.99h-3.49v4.17h-1.19V99.54z"/>
		<linearGradient id="SVGID_32_" gradientUnits="userSpaceOnUse" x1="12.9567" y1="104.1557" x2="132.1505" y2="104.1557">
			<stop  offset="0.498" style="stop-color:#3FDCFF"/>
			<stop  offset="1" style="stop-color:#0000FF"/>
		</linearGradient>
		<path class="st32" d="M19.62,99.67c0.6-0.12,1.46-0.19,2.29-0.19c1.27,0,2.09,0.23,2.67,0.75c0.47,0.41,0.73,1.04,0.73,1.75
			c0,1.22-0.77,2.03-1.74,2.35v0.04c0.71,0.25,1.14,0.9,1.35,1.86c0.3,1.29,0.52,2.18,0.71,2.53H24.4c-0.15-0.26-0.36-1.05-0.62-2.2
			c-0.27-1.27-0.77-1.75-1.85-1.79h-1.12v4h-1.19V99.67z M20.81,103.87h1.22c1.27,0,2.08-0.7,2.08-1.75c0-1.19-0.86-1.71-2.12-1.72
			c-0.58,0-0.99,0.05-1.18,0.11V103.87z"/>
		<linearGradient id="SVGID_33_" gradientUnits="userSpaceOnUse" x1="12.9567" y1="104.1557" x2="132.1505" y2="104.1557">
			<stop  offset="0.498" style="stop-color:#3FDCFF"/>
			<stop  offset="1" style="stop-color:#0000FF"/>
		</linearGradient>
		<path class="st33" d="M28.54,105.87l-0.96,2.9h-1.23l3.13-9.23h1.44l3.15,9.23H32.8l-0.99-2.9H28.54z M31.56,104.94l-0.9-2.66
			c-0.21-0.6-0.34-1.15-0.48-1.68h-0.03c-0.14,0.55-0.29,1.11-0.47,1.67l-0.9,2.67H31.56z"/>
		<linearGradient id="SVGID_34_" gradientUnits="userSpaceOnUse" x1="12.9567" y1="104.1557" x2="132.1505" y2="104.1557">
			<stop  offset="0.498" style="stop-color:#3FDCFF"/>
			<stop  offset="1" style="stop-color:#0000FF"/>
		</linearGradient>
		<path class="st34" d="M35.42,108.77v-9.23h1.3l2.96,4.67c0.68,1.08,1.22,2.05,1.66,3l0.03-0.01c-0.11-1.23-0.14-2.35-0.14-3.79
			v-3.86h1.12v9.23h-1.2l-2.93-4.68c-0.64-1.03-1.26-2.08-1.72-3.08l-0.04,0.01c0.07,1.16,0.1,2.27,0.1,3.81v3.94H35.42z"/>
		<linearGradient id="SVGID_35_" gradientUnits="userSpaceOnUse" x1="12.9567" y1="104.1557" x2="132.1505" y2="104.1557">
			<stop  offset="0.498" style="stop-color:#3FDCFF"/>
			<stop  offset="1" style="stop-color:#0000FF"/>
		</linearGradient>
		<path class="st35" d="M50.87,108.47c-0.44,0.22-1.31,0.44-2.44,0.44c-2.6,0-4.56-1.64-4.56-4.67c0-2.89,1.96-4.85,4.82-4.85
			c1.15,0,1.88,0.25,2.19,0.41l-0.29,0.97c-0.45-0.22-1.09-0.38-1.86-0.38c-2.16,0-3.6,1.38-3.6,3.81c0,2.26,1.3,3.71,3.54,3.71
			c0.73,0,1.46-0.15,1.94-0.38L50.87,108.47z"/>
		<linearGradient id="SVGID_36_" gradientUnits="userSpaceOnUse" x1="12.9567" y1="104.1557" x2="132.1505" y2="104.1557">
			<stop  offset="0.498" style="stop-color:#3FDCFF"/>
			<stop  offset="1" style="stop-color:#0000FF"/>
		</linearGradient>
		<path class="st36" d="M57.13,104.44h-3.59v3.33h4v1h-5.19v-9.23h4.98v1h-3.79v2.92h3.59V104.44z"/>
		<linearGradient id="SVGID_37_" gradientUnits="userSpaceOnUse" x1="12.9567" y1="104.1557" x2="132.1505" y2="104.1557">
			<stop  offset="0.498" style="stop-color:#3FDCFF"/>
			<stop  offset="1" style="stop-color:#0000FF"/>
		</linearGradient>
		<path class="st37" d="M58.92,107.32c0.53,0.33,1.31,0.6,2.14,0.6c1.22,0,1.93-0.64,1.93-1.57c0-0.86-0.49-1.35-1.74-1.83
			c-1.51-0.53-2.44-1.31-2.44-2.61c0-1.44,1.19-2.5,2.98-2.5c0.94,0,1.63,0.22,2.04,0.45l-0.33,0.97c-0.3-0.16-0.92-0.44-1.75-0.44
			c-1.26,0-1.74,0.75-1.74,1.38c0,0.86,0.56,1.29,1.83,1.78c1.56,0.6,2.35,1.36,2.35,2.71c0,1.42-1.05,2.66-3.23,2.66
			c-0.89,0-1.86-0.26-2.35-0.59L58.92,107.32z"/>
		<linearGradient id="SVGID_38_" gradientUnits="userSpaceOnUse" x1="12.9567" y1="104.1557" x2="132.1505" y2="104.1557">
			<stop  offset="0.498" style="stop-color:#3FDCFF"/>
			<stop  offset="1" style="stop-color:#0000FF"/>
		</linearGradient>
		<path class="st38" d="M72.28,108.47c-0.44,0.22-1.31,0.44-2.44,0.44c-2.6,0-4.56-1.64-4.56-4.67c0-2.89,1.96-4.85,4.82-4.85
			c1.15,0,1.88,0.25,2.19,0.41L72,100.78c-0.45-0.22-1.09-0.38-1.86-0.38c-2.16,0-3.6,1.38-3.6,3.81c0,2.26,1.3,3.71,3.54,3.71
			c0.73,0,1.46-0.15,1.94-0.38L72.28,108.47z"/>
		<linearGradient id="SVGID_39_" gradientUnits="userSpaceOnUse" x1="12.9567" y1="104.1557" x2="132.1505" y2="104.1557">
			<stop  offset="0.498" style="stop-color:#3FDCFF"/>
			<stop  offset="1" style="stop-color:#0000FF"/>
		</linearGradient>
		<path class="st39" d="M81.36,104.06c0,3.17-1.93,4.86-4.28,4.86c-2.44,0-4.15-1.89-4.15-4.68c0-2.93,1.82-4.85,4.28-4.85
			C79.73,99.39,81.36,101.32,81.36,104.06z M74.2,104.21c0,1.97,1.07,3.74,2.94,3.74c1.89,0,2.96-1.74,2.96-3.83
			c0-1.83-0.96-3.75-2.94-3.75C75.19,100.36,74.2,102.18,74.2,104.21z"/>
		<linearGradient id="SVGID_40_" gradientUnits="userSpaceOnUse" x1="12.9567" y1="104.1557" x2="132.1505" y2="104.1557">
			<stop  offset="0.498" style="stop-color:#3FDCFF"/>
			<stop  offset="1" style="stop-color:#0000FF"/>
		</linearGradient>
		<path class="st40" d="M85.8,99.67c0.52-0.11,1.34-0.19,2.18-0.19c1.19,0,1.96,0.21,2.53,0.67c0.48,0.36,0.77,0.9,0.77,1.63
			c0,0.89-0.59,1.67-1.56,2.03v0.03c0.88,0.22,1.9,0.94,1.9,2.31c0,0.79-0.31,1.4-0.78,1.85c-0.64,0.59-1.68,0.86-3.19,0.86
			c-0.82,0-1.45-0.05-1.85-0.11V99.67z M86.99,103.44h1.08c1.26,0,2-0.66,2-1.55c0-1.08-0.82-1.51-2.03-1.51
			c-0.55,0-0.86,0.04-1.05,0.08V103.44z M86.99,107.87c0.23,0.04,0.57,0.05,1,0.05c1.23,0,2.37-0.45,2.37-1.79
			c0-1.26-1.08-1.78-2.38-1.78h-0.99V107.87z"/>
		<linearGradient id="SVGID_41_" gradientUnits="userSpaceOnUse" x1="12.9567" y1="104.1557" x2="132.1505" y2="104.1557">
			<stop  offset="0.498" style="stop-color:#3FDCFF"/>
			<stop  offset="1" style="stop-color:#0000FF"/>
		</linearGradient>
		<path class="st41" d="M97.99,104.44h-3.59v3.33h4v1h-5.19v-9.23h4.98v1h-3.79v2.92h3.59V104.44z"/>
		<linearGradient id="SVGID_42_" gradientUnits="userSpaceOnUse" x1="12.9567" y1="104.1557" x2="132.1505" y2="104.1557">
			<stop  offset="0.498" style="stop-color:#3FDCFF"/>
			<stop  offset="1" style="stop-color:#0000FF"/>
		</linearGradient>
		<path class="st42" d="M99.94,99.54h1.19v8.23h3.94v1h-5.13V99.54z"/>
		<linearGradient id="SVGID_43_" gradientUnits="userSpaceOnUse" x1="12.9567" y1="104.1557" x2="132.1505" y2="104.1557">
			<stop  offset="0.498" style="stop-color:#3FDCFF"/>
			<stop  offset="1" style="stop-color:#0000FF"/>
		</linearGradient>
		<path class="st43" d="M106.4,99.54h1.19v8.23h3.94v1h-5.13V99.54z"/>
		<linearGradient id="SVGID_44_" gradientUnits="userSpaceOnUse" x1="12.9567" y1="104.1557" x2="132.1505" y2="104.1557">
			<stop  offset="0.498" style="stop-color:#3FDCFF"/>
			<stop  offset="1" style="stop-color:#0000FF"/>
		</linearGradient>
		<path class="st44" d="M114.05,99.54v9.23h-1.19v-9.23H114.05z"/>
		<linearGradient id="SVGID_45_" gradientUnits="userSpaceOnUse" x1="12.9567" y1="104.1557" x2="132.1505" y2="104.1557">
			<stop  offset="0.498" style="stop-color:#3FDCFF"/>
			<stop  offset="1" style="stop-color:#0000FF"/>
		</linearGradient>
		<path class="st45" d="M116.13,108.77v-9.23h1.3l2.96,4.67c0.68,1.08,1.22,2.05,1.66,3l0.03-0.01c-0.11-1.23-0.14-2.35-0.14-3.79
			v-3.86h1.12v9.23h-1.21l-2.93-4.68c-0.64-1.03-1.26-2.08-1.72-3.08l-0.04,0.01c0.07,1.16,0.1,2.27,0.1,3.81v3.94H116.13z"/>
		<linearGradient id="SVGID_46_" gradientUnits="userSpaceOnUse" x1="12.9567" y1="104.1557" x2="132.1505" y2="104.1557">
			<stop  offset="0.498" style="stop-color:#3FDCFF"/>
			<stop  offset="1" style="stop-color:#0000FF"/>
		</linearGradient>
		<path class="st46" d="M126.62,105.87l-0.96,2.9h-1.23l3.13-9.23H129l3.15,9.23h-1.27l-0.99-2.9H126.62z M129.65,104.94l-0.9-2.66
			c-0.21-0.6-0.34-1.15-0.48-1.68h-0.03c-0.14,0.55-0.29,1.11-0.46,1.67l-0.9,2.67H129.65z"/>
	</g>
</g>
<g transform="translate(0.000000,512.000000) scale(0.100000,-0.100000)">
	<linearGradient id="SVGID_47_" gradientUnits="userSpaceOnUse" x1="166.2835" y1="4701.1934" x2="290.5878" y2="4692.9761">
		<stop  offset="0" style="stop-color:#3D8EFF"/>
		<stop  offset="1" style="stop-color:#0000FF"/>
	</linearGradient>
	<path class="st47" d="M465.31,4832.26c-1.14-0.52-3.01-1.97-4.16-3.22c-2.08-2.29-2.08-3.95-2.39-105.33
		c-0.31-93.8-0.21-103.25,1.35-106.16c0.93-1.87,2.91-3.84,4.26-4.47c1.77-0.73,14.44-1.14,39.27-1.14
		c42.17,0,40.62-0.31,43.84,9.66l1.66,5.4l18.39-18.28c17.04-17.04,29.6-27.63,64.51-55.05c22.33-17.56,49.24-37.5,55.57-41.34
		c8.62-5.19,25.24-10.6,34.69-11.22c8.93-0.62,19.22,1.45,24,4.88c2.7,1.87,3.53,1.97,7.79,0.93c14.23-3.64,31.16,4.05,41.14,18.39
		c2.8,4.16,3.01,4.26,8,3.74c14.23-1.35,31.27,7.17,38.12,19.01c2.39,4.05,3.01,4.36,9.45,5.61c8.62,1.56,13.82,4.16,20.26,10.18
		c7.06,6.65,10.49,14.33,10.91,24.2l0.21,7.79l7.69,5.4c4.16,3.01,8.1,5.4,8.62,5.4c0.62,0.1,1.97-2.8,3.12-6.34
		c3.53-11.01,2.08-10.6,42.38-11.01c38.33-0.42,41.14,0,44.36,5.3c1.97,3.22,2.08,6.02,2.08,105.64c0,99.1-0.1,102.42-1.97,105.54
		c-3.32,5.4-6.44,5.92-31.27,4.57c-39.27-1.97-68.97-6.86-97.75-16.21c-19.74-6.34-24.52-9.87-23.48-17.24l0.52-3.84l-5.4,2.08
		c-2.91,1.25-8.1,3.22-11.53,4.57c-3.43,1.25-18.07,7.27-32.51,13.4c-30.64,12.98-41.76,16.2-56.2,16.2
		c-16.1,0-29.09-4.47-45.39-15.69l-7.27-5.09h-43.94h-43.94l0.73,6.65c0.52,5.09,0.31,7.27-0.93,9.87
		c-5.61,10.7-35.42,19.53-84.45,24.93C481.83,4832.57,467.91,4833.4,465.31,4832.26z M500.63,4808.26
		c27.63-3.12,51.73-7.58,62.64-11.63l5.51-2.08l-0.62-4.78c-4.05-29.5-19.42-89.54-39.06-152.6l-1.14-3.43h-23.79h-23.79v88.3
		c0,48.61,0.31,88.3,0.83,88.3C481.62,4810.34,490.35,4809.41,500.63,4808.26z M968.59,4700.23v-88.3h-23.79h-23.79l-4.36,13.82
		c-10.91,34.38-35.84,102.73-47.37,130.05c-3.64,8.52-6.23,15.79-5.82,16.21c1.14,1.04,19.42,5.92,32.41,8.62
		c20.98,4.36,46.43,7.48,64.2,7.79l8.52,0.1V4700.23z M743.49,4785.83c4.16-0.93,11.74-3.53,16.83-5.61
		c5.19-2.18,19.42-8.1,31.68-13.19c12.26-5.09,30.44-12.36,40.3-16l17.87-6.65l6.34-16.1c12.47-31.79,35.94-98.37,35.11-99.1
		c-0.21-0.21-4.78-3.22-10.08-6.75l-9.66-6.44l-2.7,3.43c-11.11,13.61-32.31,32.72-70.43,63.68c-27.84,22.65-39.47,32.31-48.3,40.62
		c-8.52,7.89-11.22,9.76-14.44,9.76c-1.35,0-8.31-2.29-15.37-5.19c-7.06-2.8-13.92-5.19-15.17-5.19c-4.05-0.1-10.18-2.91-11.95-5.4
		c-3.43-4.99-12.26-13.61-16.41-16c-6.86-4.05-14.44-5.09-22.33-3.12c-3.64,0.93-7.27,2.49-8,3.53c-3.53,4.47,2.8,22.02,13.09,36.46
		c9.66,13.71,35.94,37.08,48.51,43.21C720.02,4787.49,730.72,4788.74,743.49,4785.83z M651.25,4763.39
		c-27.01-33.14-34.49-59.83-21.19-75.93c6.34-7.69,23.27-13.09,36.98-11.74c13.3,1.35,24.51,7.27,35.53,18.59
		c4.78,4.78,7.69,6.96,10.18,7.48c1.97,0.31,7.27,2.29,11.95,4.26l8.41,3.53l5.3-4.99c6.02-5.61,19.32-16.72,51.94-43.21
		c60.25-49.13,75.62-67,67.83-78.95c-2.49-3.74-7.79-6.86-11.84-6.86c-4.57,0-13.19,7.69-45.29,40.82
		c-27.94,28.77-29.71,30.12-36.36,27.32c-6.34-2.6-8.62-9.87-4.99-15.69c1.04-1.66,15.89-17.35,32.93-34.69
		c17.14-17.35,30.96-32.1,30.75-32.72c-1.14-3.64-7.58-7.79-14.13-9.04c-8.41-1.56-9.56-0.73-39.68,29.81
		c-15.48,15.58-29.5,28.88-31.06,29.5c-4.16,1.56-9.56-0.42-12.05-4.57c-2.49-4.05-2.49-7.58,0-11.63
		c1.04-1.77,13.3-14.75,27.11-28.88l25.14-25.55l-2.8-3.74c-5.51-7.27-12.67-9.97-18.91-7.06c-2.49,1.14-14.75,12.67-32.62,30.75
		c-28.05,28.15-28.88,28.88-32.93,28.88c-7.89,0-13.3-7.69-10.28-14.75c0.83-1.87,11.84-14.13,24.62-27.11
		c12.67-12.98,22.85-23.89,22.44-24.31c-0.93-1.04-12.98,1.35-19.74,3.84c-7.89,3.01-18.7,10.39-48.41,33.24
		c-45.39,34.9-65.03,51.63-84.35,71.78c-9.87,10.28-18.07,19.11-18.28,19.63c-0.21,0.52,2.8,11.74,6.54,25.03
		c7.58,26.38,16.62,61.6,20.36,79.15l2.29,11.11h33.66h33.66L651.25,4763.39z"/>
</g>
<g transform="translate(0.000000,512.000000) scale(0.100000,-0.100000)">
	<linearGradient id="SVGID_48_" gradientUnits="userSpaceOnUse" x1="549.8491" y1="4934.5996" x2="589.824" y2="4934.5996">
		<stop  offset="0.0196" style="stop-color:#3F94FF"/>
		<stop  offset="1" style="stop-color:#0000FF"/>
	</linearGradient>
	<path class="st48" d="M932.94,4818.95c2.71,0.13,5.4,0.4,8.11,0.45c0.04,0,0.07,0,0.11,0c2.86,0.69,5.68,1.39,8.44,2.09v78.9
		H816.34v85.16l3.12,1.25c4.37,1.77,10.83,9.37,12.29,14.37c1.67,5.31,1.56,26.34,0,31.65c-0.62,2.29-3.23,6.46-5.73,9.16
		c-8.02,8.95,1.77,8.33-135.03,8.22c-84.95-0.1-121.91-0.42-124.52-1.25c-5.1-1.67-13.85-10.62-15.41-15.93
		c-1.56-5.52-1.67-26.55,0-31.86c1.46-5,7.91-12.6,12.29-14.37l3.12-1.25v-157.07c6.38-1.26,11.91-3.67,16.66-6.87v162.07h216.55
		v-83.29h-66.63l-0.17-77.53c6.22-0.05,11.82-1.04,16.83-2.78v63.65h183.24V4818.95z M811.23,5000.34H571.57l-2.5,2.6
		c-2.5,2.39-2.6,3.23-2.6,14.06s0.1,11.66,2.6,14.05l2.5,2.6h239.66l2.5-2.6c2.5-2.39,2.6-3.23,2.6-14.05s-0.1-11.66-2.6-14.06
		L811.23,5000.34z"/>
	<linearGradient id="SVGID_49_" gradientUnits="userSpaceOnUse" x1="599.7837" y1="4942.0327" x2="604.7811" y2="4942.0327">
		<stop  offset="0.0196" style="stop-color:#3F94FF"/>
		<stop  offset="1" style="stop-color:#0000FF"/>
	</linearGradient>
	<path class="st49" d="M599.78,4942.03v-24.99h24.99h24.99v24.99v24.99h-24.99h-24.99V4942.03z M633.1,4942.03v-8.33h-8.33h-8.33
		v8.33v8.33h8.33h8.33V4942.03z"/>
	<linearGradient id="SVGID_50_" gradientUnits="userSpaceOnUse" x1="666.415" y1="4942.0327" x2="671.4124" y2="4942.0327">
		<stop  offset="0.0196" style="stop-color:#3F94FF"/>
		<stop  offset="1" style="stop-color:#0000FF"/>
	</linearGradient>
	<path class="st50" d="M666.42,4942.03v-24.99h24.99h24.99v24.99v24.99H691.4h-24.99V4942.03z M699.73,4942.03v-8.33h-8.33h-8.33
		v8.33v8.33h8.33h8.33V4942.03z"/>
	<linearGradient id="SVGID_51_" gradientUnits="userSpaceOnUse" x1="733.0463" y1="4942.0327" x2="738.0436" y2="4942.0327">
		<stop  offset="0.0196" style="stop-color:#3F94FF"/>
		<stop  offset="1" style="stop-color:#0000FF"/>
	</linearGradient>
	<path class="st51" d="M733.05,4942.03v-24.99h24.99h24.99v24.99v24.99h-24.99h-24.99V4942.03z M766.36,4942.03v-8.33h-8.33h-8.33
		v8.33v8.33h8.33h8.33V4942.03z"/>
	<linearGradient id="SVGID_52_" gradientUnits="userSpaceOnUse" x1="599.7837" y1="4875.4014" x2="604.7811" y2="4875.4014">
		<stop  offset="0.0196" style="stop-color:#3F94FF"/>
		<stop  offset="1" style="stop-color:#0000FF"/>
	</linearGradient>
	<path class="st52" d="M599.78,4875.4v-24.99h24.99h24.99v24.99v24.99h-24.99h-24.99V4875.4z M633.1,4875.4v-8.33h-8.33h-8.33v8.33
		v8.33h8.33h8.33V4875.4z"/>
	<linearGradient id="SVGID_53_" gradientUnits="userSpaceOnUse" x1="666.415" y1="4875.4014" x2="671.4124" y2="4875.4014">
		<stop  offset="0.0196" style="stop-color:#3F94FF"/>
		<stop  offset="1" style="stop-color:#0000FF"/>
	</linearGradient>
	<path class="st53" d="M666.42,4875.4v-24.99h24.99h24.99v24.99v24.99H691.4h-24.99V4875.4z M699.73,4875.4v-8.33h-8.33h-8.33v8.33
		v8.33h8.33h8.33V4875.4z"/>
	<linearGradient id="SVGID_54_" gradientUnits="userSpaceOnUse" x1="599.7838" y1="4815.9136" x2="604.7811" y2="4815.9136">
		<stop  offset="0.0196" style="stop-color:#3F94FF"/>
		<stop  offset="1" style="stop-color:#0000FF"/>
	</linearGradient>
	<path class="st54" d="M599.78,4833.76v-33.01c0.36-0.89,0.74-1.77,1.05-2.68h48.92v35.69H599.78z M633.1,4800.44h-16.66v16.66
		h16.66V4800.44z"/>
	<linearGradient id="SVGID_55_" gradientUnits="userSpaceOnUse" x1="666.4153" y1="4815.9136" x2="671.4126" y2="4815.9136">
		<stop  offset="0.0196" style="stop-color:#3F94FF"/>
		<stop  offset="1" style="stop-color:#0000FF"/>
	</linearGradient>
	<path class="st55" d="M683.07,4800.94v16.16h16.66v-4.66c1.86,0.98,3.81,1.85,5.88,2.59c3.25,2.21,6.71,4.19,10.77,5.48v13.26
		h-49.97v-35.69h14.24C681.42,4799.06,682.22,4800.02,683.07,4800.94z"/>
	<linearGradient id="SVGID_56_" gradientUnits="userSpaceOnUse" x1="766.3622" y1="4833.7568" x2="781.3542" y2="4833.7568">
		<stop  offset="0.0196" style="stop-color:#3F94FF"/>
		<stop  offset="1" style="stop-color:#0000FF"/>
	</linearGradient>
	<path class="st56" d="M860.26,4807.34c18.4,4.76,37.12,8.38,56.02,10.38v49.35H766.36v-54.72c4.86-0.85,9.47-2.64,13.81-5.41
		c4.18-2.15,8.56-3.93,12.5-6.51h52.49C849.51,4803.38,854.43,4805.83,860.26,4807.34z M783.02,4850.41h116.6v-33.32h-116.6V4850.41
		z"/>
</g>
</svg>
